<?xml version="1.0" encoding="UTF-8" standalone="no"?>
<!DOCTYPE svg PUBLIC "-//W3C//DTD SVG 1.1//EN" "http://www.w3.org/Graphics/SVG/1.1/DTD/svg11.dtd">
<svg width="100%" height="100%" viewBox="0 0 26 18" version="1.1" xmlns="http://www.w3.org/2000/svg" xmlns:xlink="http://www.w3.org/1999/xlink" xml:space="preserve" xmlns:serif="http://www.serif.com/" style="fill-rule:evenodd;clip-rule:evenodd;stroke-linejoin:round;stroke-miterlimit:2;">
    <g transform="matrix(1,0,0,1,-8446.021523,-3198.382918)">
        <g transform="matrix(1.333333,0,0,2.477383,6999,1240)">
            <g transform="matrix(0.546444,0,0,0.294097,643.857848,218.711965)">
                <path d="M842.4,1950.18C842.4,1946.896 839.734,1944.229 836.45,1944.229L813.734,1944.229C810.45,1944.229 807.783,1946.896 807.783,1950.18L807.783,1962.08C807.783,1965.364 810.45,1968.03 813.734,1968.03L836.45,1968.03C839.734,1968.03 842.4,1965.364 842.4,1962.08L842.4,1950.18ZM811.135,1948.602L825.092,1961.521L839.049,1948.602C839.329,1949.062 839.49,1949.602 839.49,1950.18L839.49,1962.08C839.49,1963.758 838.128,1965.12 836.45,1965.12L813.734,1965.12C812.056,1965.12 810.693,1963.758 810.693,1962.08C810.693,1962.08 810.693,1950.18 810.693,1950.18C810.693,1949.602 810.855,1949.062 811.135,1948.602ZM836.345,1947.139L813.838,1947.139L825.092,1957.556L836.345,1947.139Z" style="fill:rgb(167,167,167);"/>
            </g>
        </g>
    </g>
</svg>
