<?xml version="1.0" encoding="UTF-8" standalone="no"?>
<!DOCTYPE svg PUBLIC "-//W3C//DTD SVG 1.1//EN" "http://www.w3.org/Graphics/SVG/1.1/DTD/svg11.dtd">
<svg width="100%" height="100%" viewBox="0 0 247 50" version="1.1" xmlns="http://www.w3.org/2000/svg" xmlns:xlink="http://www.w3.org/1999/xlink" xml:space="preserve" xmlns:serif="http://www.serif.com/" style="fill-rule:evenodd;clip-rule:evenodd;stroke-linejoin:round;stroke-miterlimit:2;">
    <g transform="matrix(1,0,0,1,-1492.867872,-3916.447859)">
        <g transform="matrix(0.755797,0,0,1,2835.205584,-0.324057)">
            <g transform="matrix(0,-0.755797,1.323106,0,-6827.950465,2669.775996)">
                <g transform="matrix(0,0.087033,-0.115154,0,-1342.699453,3686.386671)">
                    <g>
                        <g transform="matrix(1.417856,0,0,1.417856,-2231.100836,540.819763)">
                            <path d="M3380.605,1686.18C3358.386,1686.18 3342.948,1702.251 3342.948,1724.47C3342.948,1808.636 3342.948,1806.06 3342.948,1806.06L3304.328,1806.06L3304.328,1595.326L3342.948,1584.789L3342.948,1677.077C3350.676,1663.196 3369.263,1650.559 3397.126,1650.559C3435.954,1650.559 3454.248,1686.117 3454.248,1717.436C3454.248,1808.674 3454.248,1806.06 3454.248,1806.06L3415.628,1806.06L3415.628,1722.67C3415.628,1700.451 3402.824,1686.18 3380.605,1686.18Z" style="fill:rgb(16,16,16);"/>
                        </g>
                        <g transform="matrix(1.417856,0,0,1.417856,-1216.364862,540.819763)">
                            <path d="M3380.605,1686.18C3358.386,1686.18 3342.948,1702.251 3342.948,1724.47C3342.948,1808.636 3342.948,1806.06 3342.948,1806.06L3304.328,1806.06L3304.328,1595.326L3342.948,1584.789L3342.948,1677.077C3350.676,1663.196 3369.263,1650.559 3397.126,1650.559C3435.954,1650.559 3454.248,1686.117 3454.248,1717.436C3454.248,1808.674 3454.248,1806.06 3454.248,1806.06L3415.628,1806.06L3415.628,1722.67C3415.628,1700.451 3402.824,1686.18 3380.605,1686.18Z" style="fill:rgb(16,16,16);"/>
                        </g>
                        <g transform="matrix(-1.417856,-0,0,-1.417856,7852.899357,5447.943339)">
                            <path d="M3378.13,1686.187C3356.6,1686.089 3342.948,1702.258 3342.948,1724.477C3342.948,1808.644 3342.948,1806.068 3342.948,1806.068L3304.328,1806.068L3304.328,1654.887L3341.101,1654.879L3341.101,1677.077C3347.682,1662.049 3363.682,1650.559 3388.659,1650.559C3427.486,1650.559 3451.773,1685.077 3451.773,1712.811C3451.773,1804.05 3451.773,1806.068 3451.773,1806.068L3413.153,1806.068L3413.153,1722.677C3413.153,1700.458 3397.412,1686.275 3378.13,1686.187Z" style="fill:rgb(16,16,16);"/>
                        </g>
                        <g transform="matrix(1.417856,0,0,1.417856,-2234.32934,542.265247)">
                            <path d="M3559.738,1809.36C3543.473,1809.36 3529.168,1805.889 3516.815,1798.992C3504.393,1792.056 3494.822,1782.53 3488.094,1770.419C3481.394,1758.359 3478.028,1744.705 3478.028,1729.45C3478.028,1714.195 3481.394,1700.541 3488.094,1688.481C3494.822,1676.37 3504.393,1666.844 3516.815,1659.908C3529.168,1653.011 3543.473,1649.54 3559.738,1649.54C3575.801,1649.54 3590.006,1653.01 3602.362,1659.908C3614.783,1666.844 3624.354,1676.37 3631.082,1688.481C3637.782,1700.541 3641.148,1714.195 3641.148,1729.45C3641.148,1744.705 3637.782,1758.359 3631.082,1770.419C3624.354,1782.53 3614.783,1792.056 3602.362,1798.992C3590.006,1805.89 3575.801,1809.36 3559.738,1809.36ZM3559.738,1773.74C3568.244,1773.74 3575.762,1771.775 3582.283,1767.806C3588.783,1763.849 3593.777,1758.528 3597.262,1751.84C3600.78,1745.09 3602.528,1737.626 3602.528,1729.45C3602.528,1721.274 3600.78,1713.81 3597.262,1707.06C3593.777,1700.372 3588.783,1695.051 3582.283,1691.094C3575.762,1687.125 3568.244,1685.16 3559.738,1685.16C3551.233,1685.16 3543.714,1687.125 3537.193,1691.094C3530.684,1695.056 3525.636,1700.386 3522.051,1707.084C3518.443,1713.827 3516.648,1721.283 3516.648,1729.45C3516.648,1737.617 3518.443,1745.073 3522.051,1751.816C3525.636,1758.514 3530.684,1763.844 3537.193,1767.806C3543.714,1771.775 3551.233,1773.74 3559.738,1773.74Z" style="fill:rgb(16,16,16);"/>
                        </g>
                        <g transform="matrix(1.417856,0,0,1.417856,-1219.593367,542.265247)">
                            <path d="M3559.738,1809.36C3543.473,1809.36 3529.168,1805.889 3516.815,1798.992C3504.393,1792.056 3494.822,1782.53 3488.094,1770.419C3481.394,1758.359 3478.028,1744.705 3478.028,1729.45C3478.028,1714.195 3481.394,1700.541 3488.094,1688.481C3494.822,1676.37 3504.393,1666.844 3516.815,1659.908C3529.168,1653.011 3543.473,1649.54 3559.738,1649.54C3575.801,1649.54 3590.006,1653.01 3602.362,1659.908C3614.783,1666.844 3624.354,1676.37 3631.082,1688.481C3637.782,1700.541 3641.148,1714.195 3641.148,1729.45C3641.148,1744.705 3637.782,1758.359 3631.082,1770.419C3624.354,1782.53 3614.783,1792.056 3602.362,1798.992C3590.006,1805.89 3575.801,1809.36 3559.738,1809.36ZM3559.738,1773.74C3568.244,1773.74 3575.762,1771.775 3582.283,1767.806C3588.783,1763.849 3593.777,1758.528 3597.262,1751.84C3600.78,1745.09 3602.528,1737.626 3602.528,1729.45C3602.528,1721.274 3600.78,1713.81 3597.262,1707.06C3593.777,1700.372 3588.783,1695.051 3582.283,1691.094C3575.762,1687.125 3568.244,1685.16 3559.738,1685.16C3551.233,1685.16 3543.714,1687.125 3537.193,1691.094C3530.684,1695.056 3525.636,1700.386 3522.051,1707.084C3518.443,1713.827 3516.648,1721.283 3516.648,1729.45C3516.648,1737.617 3518.443,1745.073 3522.051,1751.816C3525.636,1758.514 3530.684,1763.844 3537.193,1767.806C3543.714,1771.775 3551.233,1773.74 3559.738,1773.74Z" style="fill:rgb(16,16,16);"/>
                        </g>
                        <g transform="matrix(1.417856,0,0,1.417856,-1733.016571,542.265247)">
                            <path d="M3478.028,1729.45C3478.028,1714.195 3481.394,1700.541 3488.094,1688.481C3494.822,1676.37 3504.393,1666.844 3516.815,1659.908C3529.168,1653.011 3543.473,1649.54 3559.738,1649.54C3581.809,1649.54 3597.735,1659.536 3605.963,1667.977C3628.064,1690.653 3641.148,1714.195 3641.148,1729.45C3641.148,1744.705 3628.064,1768.247 3605.963,1790.923C3597.735,1799.364 3581.809,1809.36 3559.738,1809.36C3543.473,1809.36 3529.168,1805.889 3516.815,1798.992C3504.393,1792.056 3494.822,1782.53 3488.094,1770.419C3481.394,1758.359 3478.028,1744.705 3478.028,1729.45ZM3561.756,1773.74C3586.652,1773.74 3606.864,1754.346 3606.864,1729.45C3606.864,1704.554 3586.652,1685.16 3561.756,1685.16C3536.861,1685.16 3516.648,1704.554 3516.648,1729.45C3516.648,1754.346 3536.861,1773.74 3561.756,1773.74Z" style="fill:rgb(16,16,16);"/>
                        </g>
                        <g transform="matrix(1.417856,0,0,1.417856,-2248.856331,542.265247)">
                            <path d="M4452.538,1809.66C4426.977,1809.66 4404.179,1802.191 4384.139,1787.263L4382.261,1785.864L4400.62,1757.267L4402.792,1758.978C4409.168,1764.002 4416.805,1767.904 4425.693,1770.706C4434.649,1773.529 4443.898,1774.94 4453.438,1774.94C4462.307,1774.94 4469.209,1773.644 4474.116,1770.908C4478.416,1768.509 4480.628,1765.116 4480.628,1760.65C4480.628,1756.384 4478.465,1753.148 4474.28,1750.85C4469.38,1748.16 4461.44,1746.301 4450.489,1745.148C4430.535,1743.294 4415.181,1738.232 4404.379,1730.106C4393.203,1721.697 4387.628,1710.674 4387.628,1697.05C4387.628,1687.456 4390.516,1679.038 4396.273,1671.789C4401.927,1664.668 4409.815,1659.092 4419.973,1655.113C4429.939,1651.209 4441.392,1649.24 4454.338,1649.24C4477.697,1649.24 4497.769,1655.11 4514.571,1666.789L4516.516,1668.141L4499.245,1696.339L4497.091,1694.968C4484.308,1686.833 4470.558,1682.76 4455.838,1682.76C4445.747,1682.76 4438.024,1684.068 4432.693,1686.829C4428.064,1689.226 4425.648,1692.587 4425.648,1697.05C4425.648,1700.942 4427.628,1703.935 4431.439,1706.124C4435.938,1708.708 4443.375,1710.506 4453.714,1711.655C4476.285,1714.118 4492.672,1719.24 4502.931,1726.832C4513.569,1734.704 4518.948,1746.058 4518.948,1760.95C4518.948,1770.734 4516.115,1779.291 4510.479,1786.629C4504.926,1793.858 4497.087,1799.543 4486.925,1803.629C4476.952,1807.638 4465.492,1809.66 4452.538,1809.66Z" style="fill:rgb(16,16,16);"/>
                        </g>
                        <g transform="matrix(0,1.033082,-1.073091,0,7646.248973,602.070307)">
                            <path d="M2213.688,3190.433L2162.553,3190.433L2148.092,3139.359L2213.688,3139.359L2213.688,3190.433ZM2294.221,3139.359C2294.221,3139.359 2322.681,3139.359 2343.857,3139.359C2349.833,3139.359 2355.565,3137.074 2359.791,3133.005C2364.017,3128.937 2366.391,3123.419 2366.391,3117.666C2366.391,3099.845 2366.391,3077.523 2366.391,3077.523L2419.442,3077.523C2419.442,3077.523 2419.442,3099.607 2419.442,3124.242C2419.442,3141.797 2412.198,3158.633 2399.304,3171.046C2386.411,3183.459 2368.923,3190.433 2350.688,3190.433C2321.559,3190.433 2294.221,3190.433 2294.221,3190.433L2294.221,3139.359Z" style="fill:rgb(16,16,16);"/>
                        </g>
                        <g transform="matrix(0.623302,0,0,1.073091,2835.745863,-481.617707)">
                            <rect x="2162.558" y="3139.359" width="256.884" height="51.073" style="fill:rgb(16,16,16);"/>
                        </g>
                        <g transform="matrix(0,0.396269,1.073091,0,5.983322,2026.846782)">
                            <path d="M2441.599,3190.433L2171.135,3190.433L2171.135,3144.213L2316.209,3143.347L2441.599,3190.433Z" style="fill:rgb(16,16,16);"/>
                        </g>
                        <g transform="matrix(0,-0.396269,1.073091,-0,5.983322,3986.936803)">
                            <path d="M2504.767,3190.433L2234.303,3190.433L2166.631,3139.359L2404.743,3139.359L2504.767,3190.433Z" style="fill:rgb(16,16,16);"/>
                        </g>
                        <g transform="matrix(0,1.065503,-1.073091,0,7659.950558,494.047252)">
                            <rect x="2247.713" y="3152.128" width="111.999" height="51.073" style="fill:rgb(16,16,16);"/>
                        </g>
                        <g transform="matrix(0.913512,0,0,0.913512,-7798.167924,-293.756501)">
                            <path d="M12110.253,3747.51C12110.253,3747.51 12113.438,3788.674 12170.036,3788.674C12222.178,3788.674 12230.788,3749.813 12230.788,3735.739C12230.788,3721.664 12290.783,3689.424 12290.783,3689.424C12290.783,3689.424 12290.783,3697.859 12290.783,3725.823C12290.783,3793.446 12252.605,3840.023 12170.036,3840.023C12059.261,3840.023 12050.258,3747.51 12050.258,3747.51L12110.253,3747.51Z" style="fill:rgb(16,16,16);"/>
                        </g>
                    </g>
                    <g>
                        <g transform="matrix(0.974082,0,0,1.073091,72.706151,-570.558446)">
                            <rect x="2162.558" y="3139.359" width="256.884" height="51.073" style="fill:rgb(16,16,16);"/>
                        </g>
                        <g transform="matrix(0,1.065503,-1.073091,0,5700.547685,494.047252)">
                            <rect x="2162.558" y="3139.359" width="284.649" height="51.073" style="fill:rgb(16,16,16);"/>
                        </g>
                    </g>
                </g>
                <g transform="matrix(0,0.070623,-0.093442,0,-1406.481464,3721.946244)">
                    <g transform="matrix(0.966114,0.258869,-0.258869,0.966114,686.907993,-2557.808809)">
                        <path d="M2320.3,5391.376C2375.416,5339.792 2495.599,5286.828 2528.753,5232.627C2528.753,5297.417 2527.849,5350.107 2527.237,5385.713C2460.425,5408.503 2388.032,5410.391 2320.3,5391.376ZM2111.317,5226.672C2186.776,5229.15 2309.251,5276.706 2371.035,5261.82C2325.203,5307.652 2287.294,5344.281 2261.689,5369.021C2228.174,5352.615 2196.742,5330.476 2168.88,5302.614C2145.753,5279.486 2126.568,5253.899 2111.317,5226.672ZM2584.486,5360.178C2586.964,5284.719 2634.52,5162.244 2619.634,5100.46C2665.466,5146.291 2702.095,5184.201 2726.835,5209.806C2710.429,5243.321 2688.29,5274.752 2660.428,5302.614C2637.3,5325.742 2611.713,5344.926 2584.486,5360.178ZM2080.119,4962.486C2131.703,5017.602 2184.666,5137.785 2238.868,5170.939C2174.078,5170.939 2121.387,5170.035 2085.781,5169.423C2062.991,5102.611 2061.104,5030.218 2080.119,4962.486ZM2749.19,5151.194C2697.606,5096.078 2644.642,4975.895 2590.441,4942.741C2655.231,4942.741 2707.921,4943.646 2743.527,4944.258C2766.317,5011.069 2768.205,5083.463 2749.19,5151.194ZM2244.823,4753.503C2242.344,4828.961 2194.788,4951.437 2209.674,5013.22C2163.843,4967.389 2127.214,4929.48 2102.473,4903.874C2118.88,4870.359 2141.019,4838.928 2168.88,4811.066C2192.008,4787.939 2217.595,4768.754 2244.823,4753.503ZM2567.62,4744.659C2601.135,4761.066 2632.566,4783.205 2660.428,4811.066C2683.556,4834.194 2702.74,4859.781 2717.992,4887.009C2642.533,4884.53 2520.058,4836.974 2458.274,4851.86C2504.105,4806.029 2542.015,4769.4 2567.62,4744.659ZM2302.072,4727.967C2368.884,4705.177 2441.277,4703.29 2509.008,4722.305C2453.892,4773.888 2333.71,4826.852 2300.555,4881.054C2300.555,4816.264 2301.46,4763.573 2302.072,4727.967Z" style="fill:rgb(16,16,16);"/>
                    </g>
                    <g transform="matrix(1.436362,0,0,1.436362,84.500359,-3141.618509)">
                        <path d="M1132.15,4120.541C1199.695,4120.541 1254.533,4175.379 1254.533,4242.924C1254.533,4310.469 1199.695,4365.307 1132.15,4365.307C1064.605,4365.307 1009.767,4310.469 1009.767,4242.924C1009.767,4175.379 1064.605,4120.541 1132.15,4120.541ZM1132.15,4349.918C1153.81,4319.784 1166.571,4282.832 1166.571,4242.924C1166.571,4203.015 1153.81,4166.064 1132.15,4135.93C1110.49,4166.064 1097.73,4203.015 1097.73,4242.924C1097.73,4282.832 1110.49,4319.784 1132.15,4349.918Z" style="fill:rgb(16,16,16);"/>
                    </g>
                </g>
            </g>
        </g>
    </g>
</svg>
