<svg width="18" height="18" viewBox="0 0 18 18" fill="none" xmlns="http://www.w3.org/2000/svg">
  <path d="M5.2 3.1L6.9 4.8M11.1 4.8L12.8 3.1M5.6 6.2H12.4C13.615 6.2 14.6 7.185 14.6 8.4V11.8C14.6 13.567 13.167 15 11.4 15H6.6C4.833 15 3.4 13.567 3.4 11.8V8.4C3.4 7.185 4.385 6.2 5.6 6.2Z" stroke="#101010" stroke-width="1.4" stroke-linecap="round" stroke-linejoin="round"/>
  <path d="M7.1 9.2V9.7M10.9 9.2V9.7" stroke="#101010" stroke-width="1.4" stroke-linecap="round"/>
  <path d="M7.2 12.15C7.695 12.49 8.304 12.49 8.799 12.15L8.999 12.013L9.199 12.15C9.694 12.49 10.303 12.49 10.798 12.15" stroke="#101010" stroke-width="1.2" stroke-linecap="round" stroke-linejoin="round"/>
</svg>
